<svg width="66.169mm" height="56.934mm" version="1.1" viewBox="0 0 66.169 56.934" xmlns="http://www.w3.org/2000/svg"><g><path d="m25.723 0.62879c-0.72931 0.35626-1.681 0.88494-2.8104 1.5543-1.1294 0.66938-2.4366 1.4794-3.7253 2.2895-1.2888 0.81007-2.5591 1.6201-3.8938 2.5038-1.3348 0.88372-2.734 1.841-4.0043 2.734-1.2703 0.89292-2.4118 1.7214-3.452 2.513-1.0402 0.79166-1.9791 1.5465-2.6972 2.1632s-1.2151 1.0954-1.7122 1.5741-0.99417 0.95735-1.4545 1.4729c-0.46028 0.51553-0.88372 1.0678-1.1691 1.4545-0.28537 0.38663-0.43265 0.60756-0.57003 0.90446s-0.26481 0.66964-0.22788 1.0656c0.03692 0.39592 0.23801 0.81479 0.62396 1.3924 0.38595 0.57765 0.95667 1.3141 1.555 1.986 0.59837 0.67197 1.2243 1.2795 1.9147 1.9239 0.69041 0.64438 1.4452 1.3256 2.4394 2.154 0.99419 0.82847 2.2277 1.8042 3.5072 2.7892 1.2796 0.98497 2.6051 1.9791 4.1792 3.0838 1.5741 1.1046 3.3967 2.3197 5.1089 3.4244 1.7122 1.1046 3.3139 2.0988 4.2528 2.6787 0.93894 0.57993 1.2151 0.74562 1.4821 0.86524 0.26696 0.11962 0.5247 0.19327 0.79155 0.15637 0.26685-0.0369 0.543-0.18417 0.84394-0.43432 0.30094-0.25014 0.62676-0.60319 0.88132-0.94453 0.25456-0.34134 0.43787-0.67102 0.58793-1.01s0.26688-0.68718 0.32532-1.0822c0.05843-0.395 0.05843-0.83685-0.01513-1.205-0.07357-0.36818-0.22085-0.66275-0.46013-0.97575-0.23929-0.31301-0.57067-0.6444-1.215-1.1323-0.64436-0.48792-1.6017-1.1323-3.0285-2.062-1.4268-0.92975-3.3231-2.1448-4.934-3.1666-1.6109-1.0218-2.9365-1.8503-4.3265-2.7708-1.39-0.92053-2.8444-1.9331-4.0871-2.7984-1.2427-0.86531-2.2737-1.5833-2.9294-2.0539-0.65566-0.47056-0.93597-0.69369-1.0686-0.82838-0.13264-0.13468-0.11727-0.18079 0.11847-0.38641 0.23573-0.20562 0.6917-0.57048 1.5814-1.1808 0.88969-0.6103 2.213-1.466 3.9991-2.6053s4.0347-2.5621 6.2585-4.0049 4.4227-2.9054 5.7212-3.776c1.2985-0.87062 1.6965-1.1492 2.0248-1.388 0.32835-0.2388 0.58704-0.4378 0.82085-0.63679 0.23381-0.19899 0.44276-0.39798 0.66163-0.71136 0.21887-0.31338 0.44772-0.74122 0.63677-1.2387 0.18905-0.49746 0.3383-1.0646 0.42786-1.5372 0.08956-0.4726 0.11941-0.85069 0.11943-1.2536s-0.02983-0.83079-0.09938-1.1193-0.179-0.43779-0.28843-0.56716c-0.10943-0.12937-0.21887-0.23881-0.37741-0.32515-0.15854-0.0863-0.36619-0.14937-0.72356-0.089-0.35737 0.0603-0.86426 0.24418-1.5936 0.60045z" fill="#802bb1"/></g><g><path d="m36.477 13.618c-0.10056 0.44246-0.30164 1.3272-0.5196 2.3285-0.21796 1.0013-0.45281 2.1192-0.64068 3.0914s-0.32878 1.7989-0.51196 2.837-0.40863 2.2874-0.61999 3.5885-0.40863 2.6538-0.6106 4.0159c-0.20197 1.3621-0.40863 2.7336-0.54014 3.6307-0.13151 0.89712-0.18788 1.3198-0.20663 1.6205-0.01876 0.30063 2.9e-5 0.47911 0.10812 0.78913s0.30535 0.75153 0.61967 1.3167c0.31431 0.56518 0.7456 1.254 1.0527 1.697 0.30707 0.44297 0.48983 0.64008 0.66447 0.77982 0.17463 0.13973 0.34103 0.22218 0.50459 0.262 0.16355 0.0398 0.32431 0.0371 0.49318-0.0599s0.3461-0.28844 0.48625-0.53372c0.14014-0.24528 0.24321-0.54455 0.36503-0.99275 0.12182-0.4482 0.26237-1.0453 0.43598-1.9451 0.17362-0.89978 0.38028-2.1022 0.63392-3.6287 0.25364-1.5265 0.55424-3.3771 0.93939-5.6034s0.85484-4.8284 1.2964-7.191 0.85484-4.4856 1.0991-5.7209 0.31939-1.5829 0.37106-1.8271c0.05168-0.24424 0.07987-0.38513 0.0048-0.68099-0.07506-0.29586-0.25354-0.74676-0.46959-1.2165s-0.46967-0.95817-0.74206-1.3762c-0.27239-0.41805-0.56359-0.76562-0.8125-0.99114-0.2489-0.22552-0.45556-0.32885-0.64349-0.37121-0.18792-0.0423-0.35699-0.0236-0.51211 0.0469-0.15511 0.0705-0.29602 0.19259-0.43796 0.41551-0.14194 0.22293-0.28484 0.54651-0.45036 0.98222-0.16552 0.43572-0.35366 0.98351-0.51973 1.5181-0.16607 0.53461-0.31004 1.0559-0.42915 1.5165-0.11911 0.46065-0.2133 0.86037-0.26037 1.0602-0.04708 0.19979-0.04708 0.19968-0.14764 0.64213z" fill="#802bb1"/></g><g><path d="m40.699 40.601c0.47579-0.26431 1.4275-0.79299 2.5569-1.4624 1.1294-0.66938 2.4366-1.4794 3.7253-2.2895 1.2888-0.81008 2.5591-1.6201 3.8938-2.5038s2.734-1.841 4.0043-2.734 2.4118-1.7214 3.452-2.5131c1.0402-0.79166 1.9791-1.5465 2.6972-2.1632s1.2151-1.0954 1.7122-1.5741 0.99417-0.95735 1.4545-1.4729c0.46028-0.51553 0.88372-1.0678 1.1691-1.4545 0.28536-0.38664 0.43265-0.60756 0.57002-0.90447 0.13737-0.2969 0.26481-0.66964 0.22788-1.0656-0.0369-0.39592-0.23801-0.81479-0.62396-1.3924s-0.95667-1.3141-1.555-1.986c-0.59837-0.67198-1.2243-1.2795-1.9147-1.9239-0.69042-0.64437-1.4452-1.3256-2.4394-2.154s-2.2277-1.8042-3.5072-2.7892c-1.2796-0.98497-2.6051-1.9791-4.1792-3.0838-1.5741-1.1046-3.3967-2.3197-5.1089-3.4244-1.7122-1.1046-3.3139-2.0988-4.2528-2.6787-0.93894-0.57993-1.2151-0.74562-1.482-0.86524s-0.52471-0.19327-0.79155-0.15637-0.543 0.18418-0.84394 0.43432c-0.30094 0.25014-0.62676 0.60319-0.88132 0.94453s-0.43787 0.67102-0.58793 1.01-0.26688 0.68718-0.32531 1.0822c-0.05843 0.395-0.05843 0.83685 0.01513 1.205 0.07357 0.36818 0.22084 0.66275 0.46013 0.97575 0.23928 0.31301 0.57068 0.6444 1.215 1.1323 0.64436 0.48792 1.6017 1.1323 3.0285 2.062 1.4268 0.92975 3.3231 2.1448 4.934 3.1666s2.9365 1.8503 4.3265 2.7708c1.39 0.92053 2.8444 1.9331 4.0872 2.7984 1.2427 0.86531 2.2737 1.5833 2.9294 2.0539 0.65566 0.47056 0.93597 0.6937 1.0686 0.82838 0.13264 0.13467 0.11729 0.18079-0.11843 0.38641-0.23572 0.20561-0.69169 0.57048-1.5814 1.1808-0.8897 0.6103-2.213 1.466-3.9991 2.6053-1.786 1.1393-4.0347 2.5621-6.2585 4.0049s-4.4228 2.9054-5.7212 3.776c-1.2985 0.87062-1.6965 1.1492-2.0248 1.388s-0.58704 0.4378-0.82085 0.63679-0.44276 0.39798-0.66163 0.71136-0.44772 0.74122-0.63677 1.2387-0.3383 1.0646-0.42788 1.5372c-0.08957 0.4726-0.11944 0.85069-0.11946 1.2536-1.9e-5 0.40296 0.02985 0.83079 0.09941 1.1193s0.17901 0.43779 0.28844 0.56716 0.21888 0.23881 0.37742 0.32515c0.15854 0.0863 0.36619 0.14937 0.72356 0.089 0.35737-0.0603 0.86426-0.24418 1.1178-0.33614 0.25352-0.0919 0.25347-0.0919 0.72926-0.35626z" fill="#802bb1"/></g><g><path d="m23.065 51.701q0.5588 0 0.94826-0.22013 0.4064-0.22014 0.4064-0.8636 0-0.64347-0.4064-0.8636-0.38947-0.22013-0.94826-0.22013h-3.6068v2.1675zm-6.1637 5.1816v-0.3048q0.62653 0 0.62653-0.3048v-7.6877q0-0.3048-0.62653-0.3048v-0.3048h5.9605q1.6256 0 2.5569 0.6096 0.93133 0.59267 0.93133 2.032t-0.93133 2.0489q-0.93133 0.59266-2.5569 0.59266h-3.4036v3.0141q0 0.3048 0.54187 0.3048v0.3048z" fill="#803392"/></g><g><path d="m33.896 51.938q0.6096 0 1.016-0.0847 0.4064-0.1016 0.64346-0.27093 0.23707-0.16934 0.33867-0.38947 0.1016-0.23706 0.1016-0.508 0-0.27093-0.1016-0.49106-0.1016-0.23707-0.33867-0.4064-0.23707-0.16934-0.64346-0.254-0.4064-0.1016-1.016-0.1016h-2.9295v2.5061zm0.44026-3.9624q0.8128 0 1.4732 0.1524 0.6604 0.13547 1.1345 0.4572 0.47413 0.3048 0.72813 0.8128 0.254 0.49107 0.254 1.2192 0 1.1176-0.6604 1.7103-0.6604 0.59267-1.778 0.79587l2.2521 3.2173q0.11853 0.16934 0.27093 0.2032 0.16933 0.0339 0.3048 0.0339v0.3048h-3.1665v-0.3048q0.1524 0 0.254-0.0508 0.11853-0.0508 0.11853-0.13547 0-0.0847-0.06773-0.18626-0.06773-0.11853-0.2032-0.3048l-1.8627-2.6416h-2.4215v3.0141q0 0.1524 0.1016 0.23707 0.11853 0.0677 0.4064 0.0677v0.3048h-2.9295v-0.3048q0.49107 0 0.49107-0.3048v-7.6877q0-0.3048-0.49107-0.3048v-0.3048z" fill="#803392"/></g><g><path d="m46.279 49.432q-0.64347 0-1.2869 0.2032t-1.1684 0.59266q-0.508 0.37254-0.82973 0.93134-0.32173 0.55879-0.32173 1.27t0.32173 1.27q0.32173 0.5588 0.82973 0.94826 0.52493 0.37254 1.1684 0.57574t1.2869 0.2032q0.64346 0 1.2869-0.2032 0.64346-0.2032 1.1515-0.57574 0.52493-0.38946 0.84666-0.94826t0.32173-1.27-0.32173-1.27q-0.32173-0.5588-0.84666-0.93134-0.508-0.38946-1.1515-0.59266-0.64347-0.2032-1.2869-0.2032zm0-1.5579q0.93133 0 1.8965 0.28787 0.9652 0.27093 1.7611 0.82973 0.79586 0.5588 1.3039 1.4224 0.508 0.84666 0.508 2.0151t-0.508 2.032q-0.508 0.84666-1.3039 1.4055-0.79587 0.5588-1.7611 0.8128t-1.8965 0.254q-0.93133 0-1.8965-0.254t-1.7611-0.8128-1.3039-1.4055q-0.508-0.8636-0.508-2.032t0.508-2.0151q0.508-0.8636 1.3039-1.4224t1.7611-0.82973q0.9652-0.28787 1.8965-0.28787z" fill="#803392"/></g></svg>
