<svg width="104.04mm" height="21.592mm" version="1.1" viewBox="0 0 104.04 21.592" xmlns="http://www.w3.org/2000/svg"><g transform="translate(-6.4203 -242.65)" fill="#000000" font-family="sans-serif"><text font-size="10.583px" letter-spacing=".66146px" style="line-height:1.25;shape-inside:url(#rect1073);white-space:pre" xml:space="preserve"/><text x="62.752083" y="97.667984" font-size="10.583px" stroke-width=".26458" style="line-height:1.25" xml:space="preserve"><tspan x="62.752083" y="97.667984" stroke-width=".26458"/></text></g><g><g><g><path d="m11.389 8.9253q-0.05821 0-0.11642 0-0.0388-0.0194-0.09701-0.0194-0.11642 0-0.56268 0.23283-0.42686 0.23283-1.106 0.52387-0.6597 0.29105-1.5134 0.50448-0.85372 0.21343-1.7851 0.21343-1.2224 0-2.3477-0.31045-1.1254-0.31044-1.9985-0.95073-0.85372-0.6597-1.3582-1.6298-0.50447-0.97014-0.50447-2.2701 0-1.2806 0.50447-2.2507 0.50447-0.98954 1.3582-1.6492 0.87313-0.65969 1.9985-0.98954t2.3477-0.32985q0.98954 0 1.7851 0.15522 0.81492 0.15523 1.4164 0.32985 0.60149 0.17463 0.95074 0.32985 0.34925 0.15522 0.42686 0.15522 0.09701 0 0.15522-0.097 0.07761-0.097 0.11642-0.15523l0.29104 0.23284-1.5134 2.3477-0.19403-0.13582q0-0.0582-0.0194-0.11642 0-0.0582-0.0194-0.13582-0.03881-0.21343-0.38806-0.42686-0.34925-0.23283-0.87313-0.40746-0.50447-0.17463-1.0866-0.29104-0.56268-0.11642-1.0478-0.11642-0.81492 0-1.5716 0.23283-0.73731 0.23284-1.3 0.6791-0.54328 0.44627-0.87313 1.106-0.32985 0.64029-0.32985 1.4746 0 0.83433 0.32985 1.494 0.32985 0.64029 0.87313 1.0866 0.56268 0.44626 1.3 0.6791 0.75671 0.23283 1.5716 0.23283 0.62089 0 1.3-0.13582 0.6791-0.15522 1.2418-0.36865 0.56268-0.23284 0.93133-0.50448 0.38806-0.29104 0.38806-0.54328 0-0.13581-0.07761-0.23283l0.27164-0.15522 1.2806 2.0567z"/><path d="m19.476 4.1134q-0.53622 0-1.0724 0.16933-0.53622 0.16933-0.97367 0.49389-0.42333 0.31044-0.69144 0.77611-0.26811 0.46566-0.26811 1.0583t0.26811 1.0583q0.26811 0.46567 0.69144 0.79022 0.43744 0.31045 0.97367 0.47978 0.53622 0.16934 1.0724 0.16934t1.0724-0.16934q0.53622-0.16933 0.95956-0.47978 0.43744-0.32455 0.70556-0.79022 0.26811-0.46566 0.26811-1.0583t-0.26811-1.0583q-0.26811-0.46567-0.70556-0.77611-0.42333-0.32456-0.95956-0.49389t-1.0724-0.16933zm0-1.2982q0.77611 0 1.5804 0.23989 0.80433 0.22578 1.4676 0.69145 0.66322 0.46566 1.0866 1.1853 0.42333 0.70555 0.42333 1.6792t-0.42333 1.6933q-0.42333 0.70556-1.0866 1.1712-0.66322 0.46567-1.4676 0.67734-0.80433 0.21166-1.5804 0.21166-0.77611 0-1.5804-0.21166-0.80433-0.21167-1.4676-0.67734-0.66322-0.46566-1.0866-1.1712-0.42333-0.71966-0.42333-1.6933t0.42333-1.6792q0.42333-0.71967 1.0866-1.1853 0.66322-0.46567 1.4676-0.69145 0.80433-0.23989 1.5804-0.23989z"/><path d="m31.134 9.1087q0.66322 0 1.1571-0.11289 0.49389-0.11289 0.81844-0.39511 0.32456-0.29634 0.47978-0.77612 0.16933-0.47977 0.16933-1.2136t-0.16933-1.2136q-0.15522-0.47978-0.47978-0.762-0.32456-0.29634-0.81844-0.40923-0.49389-0.11288-1.1571-0.11288h-2.1872v4.9953zm0.56444-6.2089q0.77611 0 1.4393 0.22578 0.67733 0.22578 1.1712 0.69144 0.49389 0.45156 0.77611 1.1571 0.28222 0.69145 0.28222 1.6369t-0.28222 1.651q-0.28222 0.69144-0.77611 1.1571-0.49389 0.45155-1.1712 0.67733-0.66322 0.22578-1.4393 0.22578h-4.6849v-0.254q0.32456 0 0.32456-0.254v-6.4064q0-0.254-0.32456-0.254v-0.254z"/><path d="m45.365 4.4238q0-0.15522-0.127-0.22578-0.11289-0.0847-0.40922-0.0847h-4.572v1.7498h2.7658q0.28222 0 0.43744-0.0705 0.15522-0.0847 0.15522-0.40923h0.254v2.2013h-0.254q0-0.32456-0.15522-0.40923-0.15522-0.0988-0.43744-0.0988h-2.7658v1.9473h4.7131q0.21167 0 0.33867-0.0988 0.14111-0.0988 0.14111-0.26811h0.254v1.9332h-0.254q0-0.21167-0.14111-0.23989-0.127-0.0282-0.33867-0.0282h-6.5758v-0.254q0.09878 0 0.16933-0.0564 0.08467-0.0706 0.08467-0.19756v-6.4064q0-0.127-0.08467-0.18344-0.07056-0.0706-0.16933-0.0706v-0.254h6.4347q0.29633 0 0.40922-0.0847 0.127-0.0988 0.127-0.254h0.254v1.8627z"/><path d="m49.384 7.994 0.14111 0.0705q0 0.127 0.05644 0.22578 0.09878 0.16933 0.381 0.33867 0.29633 0.15522 0.66322 0.28222 0.381 0.127 0.79022 0.21167 0.40922 0.0705 0.73378 0.0705 0.23989 0 0.62089-0.0282 0.381-0.0423 0.74789-0.15522 0.36689-0.11289 0.635-0.31045 0.26811-0.19755 0.26811-0.52211 0-0.32455-0.254-0.47977-0.23989-0.15523-0.64911-0.22578-0.39511-0.0706-0.91722-0.0847-0.508-0.0282-1.0442-0.0705t-1.0583-0.14112q-0.508-0.0988-0.91722-0.32455-0.39511-0.23989-0.64911-0.635-0.23989-0.40922-0.23989-1.0583 0-0.43745 0.19756-0.86078 0.21167-0.42333 0.635-0.74789 0.42333-0.32455 1.0724-0.52211 0.64911-0.21167 1.524-0.21167 0.74789 0 1.2982 0.11289t0.94544 0.23989q0.40922 0.127 0.67733 0.23989 0.28222 0.11289 0.46567 0.11289 0.19756 0 0.28222-0.0847l0.16933 0.11289-0.97367 1.7639-0.14111-0.0565q-0.02822-0.19755-0.11289-0.32455-0.11289-0.16933-0.381-0.32456-0.254-0.16933-0.60678-0.29633-0.35278-0.127-0.762-0.19755-0.40922-0.0847-0.81844-0.0847-0.31044 0-0.64911 0.0564-0.32456 0.0423-0.59267 0.14111-0.26811 0.0988-0.45156 0.26812-0.16933 0.15522-0.16933 0.39511 0 0.33866 0.23989 0.508 0.254 0.16933 0.64911 0.254 0.40922 0.0847 0.91722 0.11288 0.52211 0.0282 1.0583 0.0706 0.53622 0.0423 1.0442 0.15522 0.52211 0.0988 0.91722 0.33867 0.40922 0.22578 0.64911 0.62089 0.254 0.39511 0.254 1.0301 0 0.73377-0.39511 1.1994-0.381 0.46567-0.95956 0.73378t-1.2559 0.36689q-0.66322 0.0847-1.2418 0.0847-0.80433 0-1.3547-0.0847-0.53622-0.0988-0.90311-0.22578-0.35278-0.14111-0.56444-0.23989-0.21167-0.11289-0.36689-0.11289-0.09878 0-0.18344 0.11289l-0.19756-0.11289z"/><path d="m65.16 8.6536q0.91193 0 1.591-0.15522 0.6791-0.15523 1.1254-0.54328 0.44626-0.40746 0.6597-1.0672 0.23283-0.65969 0.23283-1.6686 0-1.0089-0.23283-1.6686-0.21343-0.65969-0.6597-1.0478-0.44626-0.40746-1.1254-0.56268t-1.591-0.15522h-3.0074v6.8686zm0.77611-8.5372q1.0672 0 1.9791 0.31044 0.93134 0.31045 1.6104 0.95074 0.6791 0.62089 1.0672 1.591 0.38806 0.95074 0.38806 2.2507 0 1.3-0.38806 2.2701-0.38806 0.95074-1.0672 1.591-0.6791 0.62089-1.6104 0.93133-0.91193 0.31045-1.9791 0.31045h-6.4417v-0.34925q0.44626 0 0.44626-0.34925v-8.8089q0-0.34925-0.44626-0.34925v-0.34925z"/><path d="m78.583 4.1134q-0.53622 0-1.0724 0.16933-0.53622 0.16933-0.97366 0.49389-0.42333 0.31044-0.69144 0.77611-0.26811 0.46566-0.26811 1.0583t0.26811 1.0583q0.26811 0.46567 0.69144 0.79022 0.43744 0.31045 0.97366 0.47978 0.53622 0.16934 1.0724 0.16934 0.53622 0 1.0724-0.16934 0.53622-0.16933 0.95955-0.47978 0.43744-0.32455 0.70556-0.79022 0.26811-0.46566 0.26811-1.0583t-0.26811-1.0583q-0.26811-0.46567-0.70556-0.77611-0.42333-0.32456-0.95955-0.49389-0.53622-0.16933-1.0724-0.16933zm0-1.2982q0.77611 0 1.5804 0.23989 0.80433 0.22578 1.4676 0.69145 0.66322 0.46566 1.0866 1.1853 0.42333 0.70555 0.42333 1.6792t-0.42333 1.6933q-0.42333 0.70556-1.0866 1.1712-0.66322 0.46567-1.4676 0.67734-0.80433 0.21166-1.5804 0.21166-0.77611 0-1.5804-0.21166-0.80433-0.21167-1.4676-0.67734-0.66322-0.46566-1.0866-1.1712-0.42333-0.71966-0.42333-1.6933t0.42333-1.6792q0.42333-0.71967 1.0866-1.1853 0.66322-0.46567 1.4676-0.69145 0.80433-0.23989 1.5804-0.23989z"/><path d="m91.285 6.0043q0.46567 0 0.79022-0.18344 0.33867-0.18345 0.33867-0.71967t-0.33867-0.71966q-0.32456-0.18345-0.79022-0.18345h-3.0057v1.8062zm-5.1364 4.318v-0.254q0.52211 0 0.52211-0.254v-6.4064q0-0.254-0.52211-0.254v-0.254h4.9671q1.3547 0 2.1308 0.508 0.77611 0.49389 0.77611 1.6933 0 1.1994-0.77611 1.7074-0.77611 0.49388-2.1308 0.49388h-2.8363v2.5118q0 0.254 0.45156 0.254v0.254z"/><path d="m103.7 4.4238q0-0.15522-0.127-0.22578-0.11288-0.0847-0.40922-0.0847h-4.572v1.7498h2.7658q0.28222 0 0.43745-0.0705 0.15522-0.0847 0.15522-0.40923h0.254v2.2013h-0.254q0-0.32456-0.15522-0.40923-0.15523-0.0988-0.43745-0.0988h-2.7658v1.9473h4.7131q0.21167 0 0.33867-0.0988 0.1411-0.0988 0.1411-0.26811h0.25401v1.9332h-0.25401q0-0.21167-0.1411-0.23989-0.127-0.0282-0.33867-0.0282h-6.5758v-0.254q0.0988 0 0.16933-0.0564 0.0847-0.0706 0.0847-0.19756v-6.4064q0-0.127-0.0847-0.18344-0.0705-0.0706-0.16933-0.0706v-0.254h6.4347q0.29634 0 0.40922-0.0847 0.127-0.0988 0.127-0.254h0.254v1.8627z"/></g><g fill="#803392"><path d="m42.859 17.232q0.46567 0 0.79022-0.18344 0.33867-0.18345 0.33867-0.71967t-0.33867-0.71967q-0.32456-0.18344-0.79022-0.18344h-3.0057v1.8062zm-5.1364 4.318v-0.254q0.52211 0 0.52211-0.254v-6.4064q0-0.254-0.52211-0.254v-0.254h4.9671q1.3547 0 2.1308 0.508 0.77611 0.49389 0.77611 1.6933t-0.77611 1.7074q-0.77611 0.49389-2.1308 0.49389h-2.8363v2.5118q0 0.254 0.45156 0.254v0.254z"/><path d="m52.678 17.43q0.508 0 0.84667-0.0706 0.33867-0.0847 0.53622-0.22578 0.19756-0.14111 0.28222-0.32455 0.08467-0.19756 0.08467-0.42333 0-0.22578-0.08467-0.40923-0.08467-0.19755-0.28222-0.33866-0.19755-0.14111-0.53622-0.21167-0.33867-0.0847-0.84667-0.0847h-2.4412v2.0884zm0.36689-3.302q0.67733 0 1.2277 0.127 0.55033 0.11289 0.94544 0.381 0.39511 0.254 0.60678 0.67733 0.21167 0.40922 0.21167 1.016 0 0.93133-0.55033 1.4252t-1.4817 0.66322l1.8768 2.6811q0.09878 0.14111 0.22578 0.16934 0.14111 0.0282 0.254 0.0282v0.254h-2.6388v-0.254q0.127 0 0.21167-0.0423 0.09878-0.0423 0.09878-0.11289 0-0.0706-0.05645-0.15523-0.05644-0.0988-0.16933-0.254l-1.5522-2.2013h-2.0179v2.5118q0 0.127 0.08467 0.19755 0.09878 0.0565 0.33867 0.0565v0.254h-2.4412v-0.254q0.40922 0 0.40922-0.254v-6.4064q0-0.254-0.40922-0.254v-0.254z"/><path d="m63.79 15.341q-0.53622 0-1.0724 0.16934-0.53622 0.16933-0.97367 0.49389-0.42333 0.31044-0.69144 0.77611-0.26811 0.46566-0.26811 1.0583 0 0.59266 0.26811 1.0583t0.69144 0.79022q0.43744 0.31045 0.97367 0.47978t1.0724 0.16933q0.53622 0 1.0724-0.16933t0.95956-0.47978q0.43744-0.32455 0.70556-0.79022t0.26811-1.0583q0-0.59267-0.26811-1.0583-0.26811-0.46567-0.70556-0.77611-0.42333-0.32456-0.95956-0.49389-0.53622-0.16934-1.0724-0.16934zm0-1.2982q0.77611 0 1.5804 0.23989 0.80433 0.22578 1.4676 0.69145 0.66322 0.46566 1.0866 1.1853 0.42333 0.70555 0.42333 1.6792 0 0.97366-0.42333 1.6933-0.42333 0.70556-1.0866 1.1712-0.66322 0.46567-1.4676 0.67733-0.80433 0.21167-1.5804 0.21167-0.77611 0-1.5804-0.21167-0.80433-0.21166-1.4676-0.67733-0.66322-0.46566-1.0866-1.1712-0.42333-0.71967-0.42333-1.6933 0-0.97367 0.42333-1.6792 0.42333-0.71967 1.0866-1.1853 0.66322-0.46567 1.4676-0.69145 0.80433-0.23989 1.5804-0.23989z"/></g></g></g></svg>
